<?xml version="1.0" encoding="UTF-8" standalone="no"?>
<!DOCTYPE svg PUBLIC "-//W3C//DTD SVG 1.1//EN"
 "http://www.w3.org/Graphics/SVG/1.1/DTD/svg11.dtd">
<!-- Generated by graphviz version 2.26.3 (20100126.1600)
 -->
<!-- Title: PROV Pages: 1 -->
<svg width="978pt" height="116pt"
 viewBox="0.00 0.00 978.00 116.00" xmlns="http://www.w3.org/2000/svg" xmlns:xlink="http://www.w3.org/1999/xlink">
<g id="graph1" class="graph" transform="scale(1 1) rotate(0) translate(4 112)">
<title>PROV</title>
<polygon fill="white" stroke="white" points="-4,5 -4,-112 975,-112 975,5 -4,5"/>
<!-- nhttp___iri_nidash_org_inference_id_3 -->
<g id="node1" class="node"><title>nhttp___iri_nidash_org_inference_id_3</title>
<a xlink:href="http://iri.nidash.org/inference_id_3" xlink:title="inference_id_3">
<polygon fill="#9fb1fc" stroke="#0000ff" points="159,-108 43,-108 43,-72 159,-72 159,-108"/>
<text text-anchor="middle" x="101" y="-86.4" font-family="Times Roman,serif" font-size="14.00">inference_id_3</text>
</a>
</g>
<!-- nhttp___annot_ann0 -->
<g id="node2" class="node"><title>nhttp___annot_ann0</title>
<polygon fill="none" stroke="gray" points="196,-36 7.10543e-14,-36 0,-1.77636e-14 202,-3.55271e-15 202,-30 196,-36"/>
<polyline fill="none" stroke="gray" points="196,-36 196,-30 "/>
<polyline fill="none" stroke="gray" points="202,-30 196,-30 "/>
<text text-anchor="start" x="10" y="-15.1667" font-family="Times Roman,serif" font-size="10.00">type:</text>
<text text-anchor="start" x="38" y="-15.1667" font-family="Times Roman,serif" font-size="10.00">http://nidm.nidash.org/inference</text>
</g>
<!-- nhttp___annot_ann0&#45;&gt;nhttp___iri_nidash_org_inference_id_3 -->
<g id="edge2" class="edge"><title>nhttp___annot_ann0&#45;&gt;nhttp___iri_nidash_org_inference_id_3</title>
<path fill="none" stroke="gray" stroke-dasharray="5,2" d="M101,-36.1686C101,-47 101,-60.7124 101,-71.5867"/>
</g>
<!-- nhttp___iri_nidash_org_conjunction_id_1 -->
<g id="node4" class="node"><title>nhttp___iri_nidash_org_conjunction_id_1</title>
<a xlink:href="http://iri.nidash.org/conjunction_id_1" xlink:title="conjunction_id_1">
<polygon fill="#9fb1fc" stroke="#0000ff" points="437,-108 305,-108 305,-72 437,-72 437,-108"/>
<text text-anchor="middle" x="371" y="-86.4" font-family="Times Roman,serif" font-size="14.00">conjunction_id_1</text>
</a>
</g>
<!-- nhttp___annot_ann1 -->
<g id="node5" class="node"><title>nhttp___annot_ann1</title>
<polygon fill="none" stroke="gray" points="516,-36 220,-36 220,-1.77636e-14 522,-3.55271e-15 522,-30 516,-36"/>
<polyline fill="none" stroke="gray" points="516,-36 516,-30 "/>
<polyline fill="none" stroke="gray" points="522,-30 516,-30 "/>
<text text-anchor="start" x="230" y="-15.1667" font-family="Times Roman,serif" font-size="10.00">type:</text>
<text text-anchor="start" x="258" y="-15.1667" font-family="Times Roman,serif" font-size="10.00">http://nidm.nidash.org/conjunctionInferenceOneTailed</text>
</g>
<!-- nhttp___annot_ann1&#45;&gt;nhttp___iri_nidash_org_conjunction_id_1 -->
<g id="edge4" class="edge"><title>nhttp___annot_ann1&#45;&gt;nhttp___iri_nidash_org_conjunction_id_1</title>
<path fill="none" stroke="gray" stroke-dasharray="5,2" d="M371,-36.1686C371,-47 371,-60.7124 371,-71.5867"/>
</g>
<!-- nhttp___iri_nidash_org_conjunction_id_2 -->
<g id="node7" class="node"><title>nhttp___iri_nidash_org_conjunction_id_2</title>
<a xlink:href="http://iri.nidash.org/conjunction_id_2" xlink:title="conjunction_id_2">
<polygon fill="#9fb1fc" stroke="#0000ff" points="821,-108 689,-108 689,-72 821,-72 821,-108"/>
<text text-anchor="middle" x="755" y="-86.4" font-family="Times Roman,serif" font-size="14.00">conjunction_id_2</text>
</a>
</g>
<!-- nhttp___annot_ann2 -->
<g id="node8" class="node"><title>nhttp___annot_ann2</title>
<polygon fill="none" stroke="gray" points="964,-36 540,-36 540,-1.77636e-14 970,-3.55271e-15 970,-30 964,-36"/>
<polyline fill="none" stroke="gray" points="964,-36 964,-30 "/>
<polyline fill="none" stroke="gray" points="970,-30 964,-30 "/>
<text text-anchor="start" x="550" y="-21.1667" font-family="Times Roman,serif" font-size="10.00">type:</text>
<text text-anchor="start" x="638" y="-21.1667" font-family="Times Roman,serif" font-size="10.00">http://www.fil.ion.ucl.ac.uk/spm/ns/#kConjunctionInferenceOneTailed</text>
<text text-anchor="start" x="550" y="-8.66667" font-family="Times Roman,serif" font-size="10.00">globalNullDegree:</text>
<text text-anchor="start" x="638" y="-8.66667" font-family="Times Roman,serif" font-size="10.00">1</text>
</g>
<!-- nhttp___annot_ann2&#45;&gt;nhttp___iri_nidash_org_conjunction_id_2 -->
<g id="edge6" class="edge"><title>nhttp___annot_ann2&#45;&gt;nhttp___iri_nidash_org_conjunction_id_2</title>
<path fill="none" stroke="gray" stroke-dasharray="5,2" d="M755,-36.1686C755,-47 755,-60.7124 755,-71.5867"/>
</g>
</g>
</svg>
